# xmcd
#
# Track frame offsets:
#	150
#	16082
#	35623
#	49992
#	73207
#	89870
#	105506
#	122074
#	138966
#	154444
#
# Disc length: 2341 seconds
#
# Revision: 0
# Processed by: cddbd v1.4PL0 Copyright (c) Steve Scherf et al.
# Submitted via: EasyCDDAExtractor 4.6.9.1
#
DISCID=8e09230a
DTITLE=Sandra Moffa - I Dont't Have To Crawl
DYEAR=2000
DGENRE=Country
TTITLE0=I Don't Have to Crawl
TTITLE1=Crime of Passion
TTITLE2=We're All the Way
TTITLE3=Shelter
TTITLE4=It's Too Late To Love Me Now
TTITLE5=Stormy Weather
TTITLE6=Was She Worth My Heart
TTITLE7=The Boy Can't Help It
TTITLE8=Fever
TTITLE9=That's How You Know It's Love
EXTD=
EXTT0=
EXTT1=
EXTT2=
EXTT3=
EXTT4=
EXTT5=
EXTT6=
EXTT7=
EXTT8=
EXTT9=
PLAYORDER=
